<svg width="64" height="22" fill="none" xmlns="http://www.w3.org/2000/svg"><path stroke="#fff" stroke-width="3" d="M0 1.5h25M0 10.5h25M0 19.5h25"/><path d="m57.17 12 6.254-5.686c.768-.698.768-1.829 0-2.527l-1.39-1.264c-.767-.697-2.011-.697-2.78 0L53 8.21l-6.254-5.686c-.768-.697-2.012-.697-2.78 0l-1.39 1.264c-.768.698-.768 1.829 0 2.527L48.83 12l-6.254 5.686c-.768.698-.768 1.829 0 2.527l1.39 1.264c.767.697 2.012.697 2.78 0L53 15.79l6.254 5.686c.768.697 2.013.697 2.78 0l1.39-1.264c.768-.698.768-1.829 0-2.527L57.17 12Z" fill="#fff"/></svg>