<svg width="30" height="29" viewBox="0 0 30 29" fill="none" xmlns="http://www.w3.org/2000/svg">
<g filter="url(#filter0_d)">
<path d="M18.5068 11.1393V11.2191L18.5846 11.2368C19.3064 11.4013 19.8349 12.0048 19.8349 12.7128C19.8349 12.8868 19.6938 13.0279 19.5199 13.0279C19.3459 13.0279 19.2049 12.8868 19.2049 12.7128C19.2049 12.2088 18.7365 11.8226 18.1918 11.8226C17.6472 11.8226 17.1788 12.2088 17.1788 12.7128C17.1788 13.2169 17.6472 13.6031 18.1918 13.6031C19.1047 13.6031 19.8349 14.2919 19.8349 15.1234C19.8349 15.8315 19.3064 16.4349 18.5846 16.5994L18.5068 16.6172V16.6969V16.8762C18.5068 17.0502 18.3658 17.1912 18.1918 17.1912C18.0179 17.1912 17.8768 17.0502 17.8768 16.8762V16.6969V16.6172L17.799 16.5994C17.0772 16.4349 16.5487 15.8315 16.5487 15.1234C16.5487 14.9494 16.6898 14.8084 16.8637 14.8084C17.0377 14.8084 17.1788 14.9494 17.1788 15.1234C17.1788 15.6275 17.6472 16.0137 18.1918 16.0137C18.7365 16.0137 19.2049 15.6275 19.2049 15.1234C19.2049 14.6193 18.7365 14.2331 18.1918 14.2331C17.2789 14.2331 16.5487 13.5443 16.5487 12.7128C16.5487 12.0048 17.0772 11.4013 17.799 11.2368L17.8768 11.2191V11.1393V10.9234C17.8768 10.7495 18.0179 10.6084 18.1918 10.6084C18.3658 10.6084 18.5068 10.7495 18.5068 10.9234V11.1393Z" fill="white" stroke="white" stroke-width="0.2"/>
<path d="M20.4852 9.16961L20.4852 9.16961C21.3714 9.5956 22.1211 10.2591 22.6532 11.0883C23.1999 11.9401 23.4889 12.9278 23.4889 13.9446C23.4889 14.8103 23.2752 15.6694 22.8712 16.4286L22.9595 16.4756L22.8712 16.4286C22.8147 16.5349 22.7058 16.5957 22.5928 16.5957C22.543 16.5957 22.4925 16.5839 22.4452 16.5587L22.4452 16.5587C22.2916 16.477 22.2333 16.2863 22.3151 16.1327L22.3151 16.1327C22.6709 15.4639 22.8589 14.7074 22.8589 13.9446C22.8589 12.1615 21.8202 10.5104 20.2122 9.73743C20.0554 9.66205 19.9894 9.47386 20.0648 9.31704L20.0648 9.31703C20.1402 9.16022 20.3284 9.09419 20.4852 9.16961Z" fill="white" stroke="white" stroke-width="0.2"/>
<path d="M18.8166 9.27942H18.8164C18.6424 9.27942 18.5014 9.13838 18.5014 8.9644C18.5014 8.79042 18.6424 8.64938 18.8164 8.64938L18.844 8.64942C19.0179 8.65032 19.1582 8.79197 19.1574 8.96592C19.1566 9.1394 19.0157 9.27946 18.8424 9.27946H18.8424H18.8424H18.8424H18.8424H18.8424H18.8424H18.8424H18.8424H18.8424H18.8424H18.8424H18.8424H18.8424H18.8424H18.8423H18.8423H18.8423H18.8423H18.8423H18.8423H18.8423H18.8423H18.8423H18.8423H18.8423H18.8423H18.8423H18.8423H18.8423H18.8423H18.8423H18.8423H18.8423H18.8423H18.8423H18.8423H18.8423H18.8423H18.8422H18.8422H18.8422H18.8422H18.8422H18.8422H18.8422H18.8422H18.8422H18.8422H18.8422H18.8422H18.8422H18.8422H18.8422H18.8422H18.8422H18.8422H18.8422H18.8422H18.8422H18.8422H18.8422H18.8422H18.8422H18.8421H18.8421H18.8421H18.8421H18.8421H18.8421H18.8421H18.8421H18.8421H18.8421H18.8421H18.8421H18.8421H18.8421H18.8421H18.8421H18.8421H18.8421H18.8421H18.8421H18.8421H18.8421H18.8421H18.8421H18.8421H18.842H18.842H18.842H18.842H18.842H18.842H18.842H18.842H18.842H18.842H18.842H18.842H18.842H18.842H18.842H18.842H18.842H18.842H18.842H18.842H18.842H18.842H18.842H18.842H18.842H18.8419H18.8419H18.8419H18.8419H18.8419H18.8419H18.8419H18.8419H18.8419H18.8419H18.8419H18.8419H18.8419H18.8419H18.8419H18.8419H18.8419H18.8419H18.8419H18.8419H18.8419H18.8419H18.8419H18.8419H18.8419H18.8418H18.8418H18.8418H18.8418H18.8418H18.8418H18.8418H18.8418H18.8418H18.8418H18.8418H18.8418H18.8418H18.8418H18.8418H18.8418H18.8418H18.8418H18.8418H18.8418H18.8418H18.8418H18.8418H18.8418H18.8418H18.8418H18.8417H18.8417H18.8417H18.8417H18.8417H18.8417H18.8417H18.8417H18.8417H18.8417H18.8417H18.8417H18.8417H18.8417H18.8417H18.8417H18.8417H18.8417H18.8417H18.8417H18.8417H18.8417H18.8417H18.8417H18.8417H18.8417H18.8416H18.8416H18.8416H18.8416H18.8416H18.8416H18.8416H18.8416H18.8416H18.8416H18.8416H18.8416H18.8416H18.8416H18.8416H18.8416H18.8416H18.8416H18.8416H18.8416H18.8416H18.8416H18.8416H18.8416H18.8416H18.8416H18.8415H18.8415H18.8415H18.8415H18.8415H18.8415H18.8415H18.8415H18.8415H18.8415H18.8415H18.8415H18.8415H18.8415H18.8415H18.8415H18.8415H18.8415H18.8415H18.8415H18.8415H18.8415H18.8415H18.8415H18.8415H18.8415H18.8414H18.8414H18.8414H18.8414H18.8414H18.8414H18.8414H18.8414H18.8414H18.8414H18.8414H18.8414H18.8414H18.8414H18.8414H18.8414H18.8414H18.8414H18.8414H18.8414H18.8414H18.8414H18.8414H18.8414H18.8414H18.8414H18.8413H18.8413H18.8413H18.8413H18.8413H18.8413H18.8413H18.8413H18.8413H18.8413H18.8413H18.8413H18.8413H18.8413H18.8413H18.8413H18.8413H18.8413H18.8413H18.8413H18.8413H18.8413H18.8413H18.8413H18.8413H18.8413H18.8412H18.8412H18.8412H18.8412H18.8412H18.8412H18.8412H18.8412H18.8412H18.8412H18.8412H18.8412H18.8412H18.8412H18.8412H18.8412H18.8412H18.8412H18.8412H18.8412H18.8412H18.8412H18.8412H18.8412H18.8412H18.8412H18.8411H18.8411H18.8411H18.8411H18.8411H18.8411H18.8411H18.8411H18.8411H18.8411H18.8411H18.8411H18.8411H18.8411H18.8411H18.8411H18.8411H18.8411H18.8411H18.8411H18.8411H18.8411H18.8411H18.8411H18.8411H18.8411H18.841H18.841H18.841H18.841H18.841H18.841H18.841H18.841H18.841H18.841H18.841H18.841H18.841H18.841H18.841H18.841H18.841H18.841H18.841H18.841H18.841H18.841H18.841H18.841H18.841H18.841H18.841H18.8409H18.8409H18.8409H18.8409H18.8409H18.8409H18.8409H18.8409H18.8409H18.8409H18.8409H18.8409H18.8409H18.8409H18.8409H18.8409H18.8409H18.8409H18.8409H18.8409H18.8409H18.8409H18.8409H18.8409H18.8409H18.8409H18.8408H18.8408H18.8408H18.8408H18.8408H18.8408H18.8408H18.8408H18.8408H18.8408H18.8408H18.8408H18.8408H18.8408H18.8408H18.8408H18.8408H18.8408H18.8408H18.8408H18.8408H18.8408H18.8408H18.8408H18.8408H18.8408H18.8407H18.8407H18.8407H18.8407H18.8407H18.8407H18.8407H18.8407H18.8407H18.8407H18.8407H18.8407H18.8407H18.8407H18.8407H18.8407H18.8407H18.8407H18.8407H18.8407H18.8407H18.8407H18.8407H18.8407H18.8407H18.8407H18.8406H18.8406H18.8406H18.8406H18.8406H18.8406H18.8406H18.8406H18.8406H18.8406H18.8406H18.8406H18.8406H18.8406H18.8406H18.8406H18.8406H18.8406H18.8406H18.8406H18.8406H18.8406H18.8406H18.8406H18.8406H18.8406H18.8405H18.8405H18.8405H18.8405H18.8405H18.8405H18.8405H18.8405H18.8405H18.8405H18.8405H18.8405H18.8405H18.8405H18.8405H18.8405H18.8405H18.8405H18.8405H18.8405H18.8405H18.8405H18.8405H18.8405H18.8405H18.8405H18.8404H18.8404H18.8404H18.8404H18.8404H18.8404H18.8404H18.8404H18.8404L18.8166 9.27942Z" fill="white" stroke="white" stroke-width="0.2"/>
<path d="M14.0722 11.7566L14.0722 11.7566C13.7164 12.4254 13.5284 13.1819 13.5284 13.9447C13.5284 15.7278 14.567 17.3788 16.175 18.1518L16.2183 18.0617L16.175 18.1519C16.3318 18.2272 16.3978 18.4154 16.3225 18.5723C16.2683 18.6849 16.1558 18.7509 16.0382 18.7509C15.9926 18.7509 15.9462 18.7409 15.902 18.7197L15.902 18.7197C15.0159 18.2937 14.2662 17.6302 13.734 16.801C13.1873 15.9491 12.8983 14.9615 12.8983 13.9447C12.8983 13.079 13.112 12.2199 13.516 11.4607L13.516 11.4607C13.5977 11.3071 13.7885 11.2488 13.942 11.3305L13.9421 11.3305C14.0957 11.4123 14.1539 11.603 14.0722 11.7566Z" fill="white" stroke="white" stroke-width="0.2"/>
<path d="M17.5709 18.61V18.61H17.5713C17.7452 18.61 17.8863 18.751 17.8863 18.925C17.8863 19.0989 17.7452 19.24 17.5713 19.24L17.544 19.2399C17.5439 19.2399 17.5439 19.2399 17.5439 19.2399C17.3699 19.2391 17.2296 19.0974 17.2304 18.9234L17.2304 18.9234C17.2312 18.7495 17.3717 18.6096 17.5471 18.6099L17.5709 18.61Z" fill="white" stroke="white" stroke-width="0.2"/>
<path d="M19.986 7.18399L20.0048 7.22869L20.0515 7.24166C22.9877 8.05649 25.149 10.753 25.149 13.9447C25.149 17.7798 22.0288 20.9 18.1937 20.9C16.1916 20.9 14.3847 20.0494 13.1142 18.6906L13.0846 18.6589H13.0412H8.15019C7.15276 18.6589 6.3411 17.8472 6.3411 16.8498C6.3411 16.2771 6.60885 15.7659 7.02612 15.434L7.12448 15.3557L7.02612 15.2774C6.60885 14.9455 6.3411 14.4343 6.3411 13.8616C6.3411 13.289 6.60885 12.7778 7.02612 12.4458L7.12448 12.3676L7.02612 12.2893C6.60885 11.9573 6.3411 11.4461 6.3411 10.8735C6.3411 10.3009 6.60885 9.78965 7.02612 9.45768L7.12448 9.37943L7.02612 9.30117C6.60885 8.9692 6.3411 8.458 6.3411 7.88536C6.3411 6.88793 7.15276 6.07627 8.15019 6.07627H9.23256H9.42273L9.31495 5.9196C9.11466 5.62845 8.99722 5.27644 8.99722 4.89722C8.99722 4.51801 9.1147 4.166 9.31495 3.87484L9.42271 3.71817H9.23256H5.90909C4.91166 3.71817 4.1 2.90651 4.1 1.90909C4.1 0.911662 4.91166 0.1 5.90909 0.1H16.0771C17.0745 0.1 17.8861 0.911662 17.8861 1.90909C17.8861 2.2883 17.7687 2.64031 17.5684 2.93147L17.4607 3.08814H17.6508H20.9743C21.9717 3.08814 22.7834 3.8998 22.7834 4.89722C22.7834 5.89465 21.9717 6.70631 20.9743 6.70631H19.8938H19.7042L19.8113 6.86279C19.8795 6.96238 19.9381 7.06985 19.986 7.18399ZM18.7806 7.01436L18.8326 6.82472C18.6759 6.7488 18.5009 6.70631 18.3182 6.70631H8.15019C7.49999 6.70631 6.97114 7.23516 6.97114 7.88536C6.97114 8.53556 7.49999 9.06441 8.15019 9.06441H13.2011H13.2425L13.2719 9.03503C14.5319 7.77184 16.2731 6.98936 18.1937 6.98936C18.3913 6.98936 18.5869 6.99811 18.7806 7.01436ZM12.5727 9.8534L12.6887 9.69445H12.4919H8.15019C7.49995 9.69445 6.97114 10.2233 6.97114 10.8735C6.97114 11.5237 7.49995 12.0525 8.15019 12.0525H11.4252H11.5L11.5211 11.9808C11.7491 11.2075 12.1082 10.4898 12.5727 9.8534ZM11.3333 12.799L11.3526 12.6826H11.2346H8.15019C7.49995 12.6826 6.97114 13.2114 6.97114 13.8616C6.97114 14.5119 7.49995 15.0407 8.15019 15.0407H11.209H11.3242L11.308 14.9266C11.2625 14.6057 11.2384 14.2779 11.2384 13.9447C11.2384 13.5545 11.2712 13.1719 11.3333 12.799ZM11.475 15.7448L11.4552 15.6707H11.3785H8.15019C7.49995 15.6707 6.97114 16.1995 6.97114 16.8498C6.97114 17.5 7.49995 18.0288 8.15019 18.0288H12.3742H12.5642L12.4566 17.8722C12.0168 17.2317 11.6815 16.5144 11.475 15.7448ZM22.1533 4.89722C22.1533 4.24703 21.6245 3.71817 20.9743 3.71817H10.8063C10.1561 3.71817 9.62726 4.24703 9.62726 4.89722C9.62726 5.54742 10.1561 6.07627 10.8063 6.07627H18.3182H20.9743C21.6245 6.07627 22.1533 5.54742 22.1533 4.89722ZM4.73004 1.90909C4.73004 2.55928 5.25884 3.08814 5.90909 3.08814H16.0771C16.7273 3.08814 17.2561 2.55928 17.2561 1.90909C17.2561 1.25889 16.7273 0.730038 16.0771 0.730038H5.90909C5.25884 0.730038 4.73004 1.25889 4.73004 1.90909ZM11.8684 13.9447C11.8684 17.4325 14.7058 20.27 18.1937 20.27C21.6815 20.27 24.519 17.4325 24.519 13.9447C24.519 10.4568 21.6815 7.61939 18.1937 7.61939C14.7058 7.61939 11.8684 10.4568 11.8684 13.9447Z" fill="white" stroke="white" stroke-width="0.2"/>
</g>
<defs>
<filter id="filter0_d" x="0" y="0" width="29.249" height="29" filterUnits="userSpaceOnUse" color-interpolation-filters="sRGB">
<feFlood flood-opacity="0" result="BackgroundImageFix"/>
<feColorMatrix in="SourceAlpha" type="matrix" values="0 0 0 0 0 0 0 0 0 0 0 0 0 0 0 0 0 0 127 0"/>
<feOffset dy="4"/>
<feGaussianBlur stdDeviation="2"/>
<feColorMatrix type="matrix" values="0 0 0 0 0 0 0 0 0 0 0 0 0 0 0 0 0 0 0.25 0"/>
<feBlend mode="normal" in2="BackgroundImageFix" result="effect1_dropShadow"/>
<feBlend mode="normal" in="SourceGraphic" in2="effect1_dropShadow" result="shape"/>
</filter>
</defs>
</svg>
